# xmcd
#
# Track frame offsets:
#	150
#	24556
#	39252
#	59248
#	78148
#
# Disc length: 1265 seconds
#
# Revision: 12
# Processed by: cddbd v1.5.2PL0 Copyright (c) Steve Scherf et al.
# Submitted via: EasyCDDAExtractor 2010.4.0.0
#
DISCID=3604ef05
DTITLE=Various Artist - DDt25
DYEAR=2008
DGENRE=Other
TTITLE0=เวลา
TTITLE1=Point of No Return (demo)
TTITLE2=แอบส่งตาซ้ำๆ
TTITLE3=Remix
TTITLE4=วันไร้สติ
EXTD=
EXTT0=
EXTT1=
EXTT2=
EXTT3=
EXTT4=
PLAYORDER=
